<svg width="32" height="32" viewBox="0 0 32 32" fill="none" xmlns="http://www.w3.org/2000/svg">
  <defs>
    <linearGradient id="virtuisaGradient" x1="0%" y1="0%" x2="100%" y2="100%">
      <stop offset="0%" style="stop-color:#739b52;stop-opacity:1" />
      <stop offset="100%" style="stop-color:#38bdf8;stop-opacity:1" />
    </linearGradient>
  </defs>
  
  <!-- Círculo principal -->
  <circle cx="16" cy="16" r="14" fill="url(#virtuisaGradient)" opacity="0.1"/>
  <circle cx="16" cy="16" r="12" stroke="url(#virtuisaGradient)" stroke-width="2" fill="none"/>
  
  <!-- Folha estilizada (representando nutrição natural) -->
  <path d="M10 12C10 12 12 8 16 8C20 8 22 12 22 12C22 16 20 20 16 20C12 20 10 16 10 12Z" 
        fill="url(#virtuisaGradient)" opacity="0.8"/>
  
  <!-- Linha central da folha -->
  <path d="M16 8L16 20" stroke="white" stroke-width="1.5" opacity="0.6"/>
  
  <!-- Pontos representando IA/tecnologia -->
  <circle cx="12" cy="14" r="1.5" fill="url(#virtuisaGradient)"/>
  <circle cx="20" cy="14" r="1.5" fill="url(#virtuisaGradient)"/>
  <circle cx="16" cy="11" r="1" fill="white" opacity="0.8"/>
  <circle cx="16" cy="17" r="1" fill="white" opacity="0.8"/>
  
  <!-- Conexões sutis (representando IA) -->
  <path d="M12 14L16 11L20 14" stroke="url(#virtuisaGradient)" stroke-width="1" opacity="0.5"/>
  <path d="M12 14L16 17L20 14" stroke="url(#virtuisaGradient)" stroke-width="1" opacity="0.5"/>
</svg>

