<svg width="24" height="24" viewBox="0 0 24 24" fill="none" xmlns="http://www.w3.org/2000/svg">
  <defs>
    <linearGradient id="aiChatGradient" x1="0%" y1="0%" x2="100%" y2="100%">
      <stop offset="0%" style="stop-color:#739b52;stop-opacity:1" />
      <stop offset="100%" style="stop-color:#38bdf8;stop-opacity:1" />
    </linearGradient>
  </defs>
  <path d="M20 2H4C2.9 2 2 2.9 2 4V16C2 17.1 2.9 18 4 18H6L10 22L14 18H20C21.1 18 22 17.1 22 16V4C22 2.9 21.1 2 20 2Z" fill="url(#aiChatGradient)" opacity="0.9"/>
  <circle cx="8" cy="9" r="1.5" fill="white"/>
  <circle cx="12" cy="9" r="1.5" fill="white"/>
  <circle cx="16" cy="9" r="1.5" fill="white"/>
  <path d="M7 13C7 13 9 15 12 15C15 15 17 13 17 13" stroke="white" stroke-width="1.5" stroke-linecap="round"/>
  <path d="M12 6L13 4L12 2L11 4L12 6Z" fill="url(#aiChatGradient)" opacity="0.7"/>
</svg>

