<svg width="24" height="24" viewBox="0 0 24 24" fill="none" xmlns="http://www.w3.org/2000/svg">
  <defs>
    <linearGradient id="exerciseGradient" x1="0%" y1="0%" x2="100%" y2="100%">
      <stop offset="0%" style="stop-color:#739b52;stop-opacity:1" />
      <stop offset="100%" style="stop-color:#38bdf8;stop-opacity:1" />
    </linearGradient>
  </defs>
  <path d="M20.57 14.86L22 13.43L20.57 12L17 15.57L8.43 7L12 3.43L10.57 2L9.14 3.43L7.71 2L5.57 4.14L4.14 2.71L2.71 4.14L4.14 5.57L2 7.71L3.43 9.14L2 10.57L3.43 12L7 8.43L15.57 17L12 20.57L13.43 22L14.86 20.57L16.29 22L18.43 19.86L19.86 21.29L21.29 19.86L19.86 18.43L22 16.29L20.57 14.86Z" fill="url(#exerciseGradient)"/>
  <circle cx="9" cy="9" r="1.5" fill="url(#exerciseGradient)" opacity="0.8"/>
  <circle cx="15" cy="15" r="1.5" fill="url(#exerciseGradient)" opacity="0.8"/>
</svg>

