<svg width="24" height="24" viewBox="0 0 24 24" fill="none" xmlns="http://www.w3.org/2000/svg">
  <defs>
    <linearGradient id="nutritionGradient" x1="0%" y1="0%" x2="100%" y2="100%">
      <stop offset="0%" style="stop-color:#739b52;stop-opacity:1" />
      <stop offset="100%" style="stop-color:#38bdf8;stop-opacity:1" />
    </linearGradient>
  </defs>
  <path d="M12 2C13.1 2 14 2.9 14 4C14 5.1 13.1 6 12 6C10.9 6 10 5.1 10 4C10 2.9 10.9 2 12 2ZM21 9V7L15 7.5V9M15 11V22H13V16H11V22H9V11H15ZM4 9V7L10 7.5V9M10 11V22H8V16H6V22H4V11H10Z" fill="url(#nutritionGradient)"/>
  <circle cx="12" cy="8" r="2" fill="url(#nutritionGradient)" opacity="0.7"/>
  <path d="M8 12H16C16.55 12 17 12.45 17 13V14C17 14.55 16.55 15 16 15H8C7.45 15 7 14.55 7 14V13C7 12.45 7.45 12 8 12Z" fill="url(#nutritionGradient)" opacity="0.5"/>
</svg>

